name rise49.8558peak67.6521fall70.3087.mot
datacolumns 19
datarows 27
range 9.36663500000000 9.40996600000000
endheader
time	ground_force1_vx	ground_force1_vy	ground_force1_vz	ground_force1_px	ground_force1_py	ground_force1_pz	ground_force2_vx	ground_force2_vy	ground_force2_vz	ground_force2_px	ground_force2_py	ground_force2_pz	ground_torque1_x	ground_torque1_y	ground_torque1_z	ground_torque2_x	ground_torque2_y	ground_torque2_z	
9.36663500000000	75.14798900000000	747.15875900000003	60.71168200000000	0.42837700000000	0.00000000000000	0.12498700000000	0.00000000000000	0.00000000000000	0.00000000000000	0.00000000000000	0.00000000000000	0.00000000000000	0.00000000000000	30.63579000000000	0.00000000000000	0.00000000000000	0.00000000000000	0.00000000000000	
9.36829500000000	74.44869000000000	749.28958000000000	60.74523800000000	0.42697200000000	0.00000000000000	0.12500500000000	0.00000000000000	0.00000000000000	0.00000000000000	0.00000000000000	0.00000000000000	0.00000000000000	0.00000000000000	30.64566100000000	0.00000000000000	0.00000000000000	0.00000000000000	0.00000000000000	
9.36996700000000	73.74816199999999	751.35253899999998	60.78017600000000	0.42557900000000	0.00000000000000	0.12502200000000	0.00000000000000	0.00000000000000	0.00000000000000	0.00000000000000	0.00000000000000	0.00000000000000	0.00000000000000	30.65860300000000	0.00000000000000	0.00000000000000	0.00000000000000	0.00000000000000	
9.37163600000000	73.04674300000001	753.34497399999998	60.81649100000000	0.42419800000000	0.00000000000000	0.12503800000000	0.00000000000000	0.00000000000000	0.00000000000000	0.00000000000000	0.00000000000000	0.00000000000000	0.00000000000000	30.67468900000000	0.00000000000000	0.00000000000000	0.00000000000000	0.00000000000000	
9.37330200000000	72.34470700000000	755.26419599999997	60.85409100000000	0.42283000000000	0.00000000000000	0.12505400000000	0.00000000000000	0.00000000000000	0.00000000000000	0.00000000000000	0.00000000000000	0.00000000000000	0.00000000000000	30.69392500000000	0.00000000000000	0.00000000000000	0.00000000000000	0.00000000000000	
9.37496200000000	71.64226800000000	757.10751600000003	60.89280000000000	0.42147700000000	0.00000000000000	0.12507000000000	0.00000000000000	0.00000000000000	0.00000000000000	0.00000000000000	0.00000000000000	0.00000000000000	0.00000000000000	30.71625100000000	0.00000000000000	0.00000000000000	0.00000000000000	0.00000000000000	
9.37663300000000	70.93958200000000	758.87226299999998	60.93236000000000	0.42013900000000	0.00000000000000	0.12508500000000	0.00000000000000	0.00000000000000	0.00000000000000	0.00000000000000	0.00000000000000	0.00000000000000	0.00000000000000	30.74154500000000	0.00000000000000	0.00000000000000	0.00000000000000	0.00000000000000	
9.37829500000000	70.23675600000000	760.55579899999998	60.97244100000000	0.41881600000000	0.00000000000000	0.12509900000000	0.00000000000000	0.00000000000000	0.00000000000000	0.00000000000000	0.00000000000000	0.00000000000000	0.00000000000000	30.76962900000000	0.00000000000000	0.00000000000000	0.00000000000000	0.00000000000000	
9.37996400000000	69.53384600000000	762.15554399999996	61.01264100000000	0.41750800000000	0.00000000000000	0.12511300000000	0.00000000000000	0.00000000000000	0.00000000000000	0.00000000000000	0.00000000000000	0.00000000000000	0.00000000000000	30.80027000000000	0.00000000000000	0.00000000000000	0.00000000000000	0.00000000000000	
9.38163000000000	68.83086700000000	763.66898900000001	61.05249900000000	0.41621700000000	0.00000000000000	0.12512600000000	0.00000000000000	0.00000000000000	0.00000000000000	0.00000000000000	0.00000000000000	0.00000000000000	0.00000000000000	30.83318500000000	0.00000000000000	0.00000000000000	0.00000000000000	0.00000000000000	
9.38329700000000	68.12779700000000	765.09371899999996	61.09149000000000	0.41494200000000	0.00000000000000	0.12513700000000	0.00000000000000	0.00000000000000	0.00000000000000	0.00000000000000	0.00000000000000	0.00000000000000	0.00000000000000	30.86804500000000	0.00000000000000	0.00000000000000	0.00000000000000	0.00000000000000	
9.38496700000000	67.42457899999999	766.42742399999997	61.12904200000000	0.41368300000000	0.00000000000000	0.12514800000000	0.00000000000000	0.00000000000000	0.00000000000000	0.00000000000000	0.00000000000000	0.00000000000000	0.00000000000000	30.90447800000000	0.00000000000000	0.00000000000000	0.00000000000000	0.00000000000000	
9.38663200000000	66.72112700000000	767.66791999999998	61.16453700000000	0.41244100000000	0.00000000000000	0.12515800000000	0.00000000000000	0.00000000000000	0.00000000000000	0.00000000000000	0.00000000000000	0.00000000000000	0.00000000000000	30.94207600000000	0.00000000000000	0.00000000000000	0.00000000000000	0.00000000000000	
9.38829600000000	66.01733299999999	768.81316200000003	61.19731900000000	0.41121600000000	0.00000000000000	0.12516600000000	0.00000000000000	0.00000000000000	0.00000000000000	0.00000000000000	0.00000000000000	0.00000000000000	0.00000000000000	30.98039900000000	0.00000000000000	0.00000000000000	0.00000000000000	0.00000000000000	
9.38996100000000	65.31306800000000	769.86126100000001	61.22669800000000	0.41000700000000	0.00000000000000	0.12517400000000	0.00000000000000	0.00000000000000	0.00000000000000	0.00000000000000	0.00000000000000	0.00000000000000	0.00000000000000	31.01897700000000	0.00000000000000	0.00000000000000	0.00000000000000	0.00000000000000	
9.39163200000000	64.60818999999999	770.81049299999995	61.25196100000000	0.40881500000000	0.00000000000000	0.12518000000000	0.00000000000000	0.00000000000000	0.00000000000000	0.00000000000000	0.00000000000000	0.00000000000000	0.00000000000000	31.05731800000000	0.00000000000000	0.00000000000000	0.00000000000000	0.00000000000000	
9.39329500000000	63.90254900000000	771.65931699999999	61.27237800000000	0.40763800000000	0.00000000000000	0.12518400000000	0.00000000000000	0.00000000000000	0.00000000000000	0.00000000000000	0.00000000000000	0.00000000000000	0.00000000000000	31.09490900000000	0.00000000000000	0.00000000000000	0.00000000000000	0.00000000000000	
9.39496600000000	63.19598500000000	772.40638000000001	61.28720600000000	0.40647800000000	0.00000000000000	0.12518800000000	0.00000000000000	0.00000000000000	0.00000000000000	0.00000000000000	0.00000000000000	0.00000000000000	0.00000000000000	31.13122500000000	0.00000000000000	0.00000000000000	0.00000000000000	0.00000000000000	
9.39663300000000	62.48834400000000	773.05053599999997	61.29569800000000	0.40533300000000	0.00000000000000	0.12519000000000	0.00000000000000	0.00000000000000	0.00000000000000	0.00000000000000	0.00000000000000	0.00000000000000	0.00000000000000	31.16573000000000	0.00000000000000	0.00000000000000	0.00000000000000	0.00000000000000	
9.39830500000000	61.77946900000000	773.59084600000006	61.29710800000000	0.40420400000000	0.00000000000000	0.12519000000000	0.00000000000000	0.00000000000000	0.00000000000000	0.00000000000000	0.00000000000000	0.00000000000000	0.00000000000000	31.19788100000000	0.00000000000000	0.00000000000000	0.00000000000000	0.00000000000000	
9.39996300000000	61.06921500000000	774.02659200000005	61.29070000000000	0.40308900000000	0.00000000000000	0.12518800000000	0.00000000000000	0.00000000000000	0.00000000000000	0.00000000000000	0.00000000000000	0.00000000000000	0.00000000000000	31.22713500000000	0.00000000000000	0.00000000000000	0.00000000000000	0.00000000000000	
9.40163400000000	60.35744700000000	774.35728200000005	61.27575200000000	0.40198800000000	0.00000000000000	0.12518500000000	0.00000000000000	0.00000000000000	0.00000000000000	0.00000000000000	0.00000000000000	0.00000000000000	0.00000000000000	31.25295200000000	0.00000000000000	0.00000000000000	0.00000000000000	0.00000000000000	
9.40329700000000	59.64404300000000	774.58265400000005	61.25156200000000	0.40090100000000	0.00000000000000	0.12518100000000	0.00000000000000	0.00000000000000	0.00000000000000	0.00000000000000	0.00000000000000	0.00000000000000	0.00000000000000	31.27479900000000	0.00000000000000	0.00000000000000	0.00000000000000	0.00000000000000	
9.40496900000000	58.92890200000000	774.70268499999997	61.21745400000000	0.39982700000000	0.00000000000000	0.12517500000000	0.00000000000000	0.00000000000000	0.00000000000000	0.00000000000000	0.00000000000000	0.00000000000000	0.00000000000000	31.29215100000000	0.00000000000000	0.00000000000000	0.00000000000000	0.00000000000000	
9.40663700000000	58.21194200000000	774.71758799999998	61.17278600000000	0.39876500000000	0.00000000000000	0.12516700000000	0.00000000000000	0.00000000000000	0.00000000000000	0.00000000000000	0.00000000000000	0.00000000000000	0.00000000000000	31.30450200000000	0.00000000000000	0.00000000000000	0.00000000000000	0.00000000000000	
9.40830200000000	57.49310600000000	774.62782100000004	61.11694800000000	0.39771500000000	0.00000000000000	0.12515700000000	0.00000000000000	0.00000000000000	0.00000000000000	0.00000000000000	0.00000000000000	0.00000000000000	0.00000000000000	31.31136100000000	0.00000000000000	0.00000000000000	0.00000000000000	0.00000000000000	
9.40996600000000	56.77236000000000	774.43408099999999	61.04937600000000	0.39667500000000	0.00000000000000	0.12514500000000	0.00000000000000	0.00000000000000	0.00000000000000	0.00000000000000	0.00000000000000	0.00000000000000	0.00000000000000	31.31225800000000	0.00000000000000	0.00000000000000	0.00000000000000	0.00000000000000	
